<mxfile host="app.diagrams.net" modified="2022-04-10T10:21:10.699Z" agent="5.0 (Windows NT 10.0; Win64; x64) AppleWebKit/537.36 (KHTML, like Gecko) Chrome/100.0.4896.75 Safari/537.36" etag="ATZ3vpve32CllxDPQHM9" version="17.4.2" type="github">
  <diagram id="Olem370CMd087SYP4OYp" name="第 1 页">
    <mxGraphModel dx="1038" dy="491" grid="0" gridSize="10" guides="1" tooltips="1" connect="1" arrows="1" fold="1" page="0" pageScale="1" pageWidth="827" pageHeight="1169" math="0" shadow="0">
      <root>
        <mxCell id="0" />
        <mxCell id="1" parent="0" />
        <mxCell id="jK2mGhUdeupE3vPP31Rs-9" style="edgeStyle=orthogonalEdgeStyle;rounded=0;orthogonalLoop=1;jettySize=auto;html=1;exitX=0.5;exitY=1;exitDx=0;exitDy=0;exitPerimeter=0;entryX=0.5;entryY=0;entryDx=0;entryDy=0;fontSize=12;" edge="1" parent="1" source="jK2mGhUdeupE3vPP31Rs-1" target="jK2mGhUdeupE3vPP31Rs-2">
          <mxGeometry relative="1" as="geometry" />
        </mxCell>
        <mxCell id="jK2mGhUdeupE3vPP31Rs-1" value="开始" style="strokeWidth=1;html=1;shape=mxgraph.flowchart.terminator;whiteSpace=wrap;fillColor=#f5f5f5;fontColor=#333333;strokeColor=#666666;shadow=1;" vertex="1" parent="1">
          <mxGeometry x="325" y="118" width="114" height="42" as="geometry" />
        </mxCell>
        <mxCell id="jK2mGhUdeupE3vPP31Rs-10" style="edgeStyle=orthogonalEdgeStyle;rounded=0;orthogonalLoop=1;jettySize=auto;html=1;exitX=0.5;exitY=1;exitDx=0;exitDy=0;entryX=0.5;entryY=0;entryDx=0;entryDy=0;fontSize=12;" edge="1" parent="1" source="jK2mGhUdeupE3vPP31Rs-2" target="jK2mGhUdeupE3vPP31Rs-3">
          <mxGeometry relative="1" as="geometry" />
        </mxCell>
        <mxCell id="jK2mGhUdeupE3vPP31Rs-2" value="客户端根据监听器生成恶意代码(shellcode)" style="rounded=0;whiteSpace=wrap;html=1;shadow=1;strokeWidth=1;fillColor=#f5f5f5;fontColor=#333333;strokeColor=#666666;" vertex="1" parent="1">
          <mxGeometry x="251" y="178" width="266" height="40" as="geometry" />
        </mxCell>
        <mxCell id="jK2mGhUdeupE3vPP31Rs-11" style="edgeStyle=orthogonalEdgeStyle;rounded=0;orthogonalLoop=1;jettySize=auto;html=1;exitX=0.5;exitY=1;exitDx=0;exitDy=0;entryX=0.5;entryY=0;entryDx=0;entryDy=0;fontSize=12;" edge="1" parent="1" source="jK2mGhUdeupE3vPP31Rs-3" target="jK2mGhUdeupE3vPP31Rs-4">
          <mxGeometry relative="1" as="geometry" />
        </mxCell>
        <mxCell id="jK2mGhUdeupE3vPP31Rs-3" value="将shellcode转化为UUID格式" style="rounded=0;whiteSpace=wrap;html=1;shadow=1;strokeWidth=1;fillColor=#f5f5f5;fontColor=#333333;strokeColor=#666666;" vertex="1" parent="1">
          <mxGeometry x="251" y="236" width="266" height="40" as="geometry" />
        </mxCell>
        <mxCell id="jK2mGhUdeupE3vPP31Rs-12" style="edgeStyle=orthogonalEdgeStyle;rounded=0;orthogonalLoop=1;jettySize=auto;html=1;exitX=0.5;exitY=1;exitDx=0;exitDy=0;fontSize=12;" edge="1" parent="1" source="jK2mGhUdeupE3vPP31Rs-4" target="jK2mGhUdeupE3vPP31Rs-5">
          <mxGeometry relative="1" as="geometry" />
        </mxCell>
        <mxCell id="jK2mGhUdeupE3vPP31Rs-4" value="将UUID形式的格式加载至内存" style="rounded=0;whiteSpace=wrap;html=1;shadow=1;strokeWidth=1;fillColor=#f5f5f5;fontColor=#333333;strokeColor=#666666;" vertex="1" parent="1">
          <mxGeometry x="249" y="294" width="266" height="40" as="geometry" />
        </mxCell>
        <mxCell id="jK2mGhUdeupE3vPP31Rs-13" style="edgeStyle=orthogonalEdgeStyle;rounded=0;orthogonalLoop=1;jettySize=auto;html=1;exitX=0.5;exitY=1;exitDx=0;exitDy=0;entryX=0.5;entryY=0;entryDx=0;entryDy=0;fontSize=12;" edge="1" parent="1" source="jK2mGhUdeupE3vPP31Rs-5" target="jK2mGhUdeupE3vPP31Rs-6">
          <mxGeometry relative="1" as="geometry" />
        </mxCell>
        <mxCell id="jK2mGhUdeupE3vPP31Rs-5" value="&lt;font style=&quot;font-size: 12px&quot;&gt;&lt;font style=&quot;font-size: 12px&quot;&gt;利用回调函数&lt;/font&gt;&lt;span lang=&quot;EN-US&quot; style=&quot;font-family: &amp;#34;times new roman&amp;#34; , serif&quot;&gt;EnumSystemLocalesA(shellcode，0)进行shellcode注入&lt;/span&gt;&lt;/font&gt;" style="rounded=0;whiteSpace=wrap;html=1;shadow=1;strokeWidth=1;fillColor=#f5f5f5;fontColor=#333333;strokeColor=#666666;" vertex="1" parent="1">
          <mxGeometry x="249" y="349" width="266" height="40" as="geometry" />
        </mxCell>
        <mxCell id="jK2mGhUdeupE3vPP31Rs-14" style="edgeStyle=orthogonalEdgeStyle;rounded=0;orthogonalLoop=1;jettySize=auto;html=1;exitX=0.5;exitY=1;exitDx=0;exitDy=0;entryX=0.5;entryY=0;entryDx=0;entryDy=0;fontSize=12;" edge="1" parent="1" source="jK2mGhUdeupE3vPP31Rs-6" target="jK2mGhUdeupE3vPP31Rs-7">
          <mxGeometry relative="1" as="geometry" />
        </mxCell>
        <mxCell id="jK2mGhUdeupE3vPP31Rs-6" value="将shellcode和加载器打包成exe文件" style="rounded=0;whiteSpace=wrap;html=1;shadow=1;strokeWidth=1;fillColor=#f5f5f5;fontColor=#333333;strokeColor=#666666;" vertex="1" parent="1">
          <mxGeometry x="249" y="410" width="266" height="40" as="geometry" />
        </mxCell>
        <mxCell id="jK2mGhUdeupE3vPP31Rs-15" style="edgeStyle=orthogonalEdgeStyle;rounded=0;orthogonalLoop=1;jettySize=auto;html=1;exitX=0.5;exitY=1;exitDx=0;exitDy=0;entryX=0.5;entryY=0;entryDx=0;entryDy=0;entryPerimeter=0;fontSize=12;" edge="1" parent="1" source="jK2mGhUdeupE3vPP31Rs-7" target="jK2mGhUdeupE3vPP31Rs-8">
          <mxGeometry relative="1" as="geometry" />
        </mxCell>
        <mxCell id="jK2mGhUdeupE3vPP31Rs-7" value="实现动态绕过杀毒软件" style="rounded=0;whiteSpace=wrap;html=1;shadow=1;strokeWidth=1;fillColor=#f5f5f5;fontColor=#333333;strokeColor=#666666;" vertex="1" parent="1">
          <mxGeometry x="249" y="474" width="266" height="40" as="geometry" />
        </mxCell>
        <mxCell id="jK2mGhUdeupE3vPP31Rs-8" value="开始" style="strokeWidth=1;html=1;shape=mxgraph.flowchart.terminator;whiteSpace=wrap;fillColor=#f5f5f5;fontColor=#333333;strokeColor=#666666;shadow=1;" vertex="1" parent="1">
          <mxGeometry x="327" y="535" width="114" height="42" as="geometry" />
        </mxCell>
      </root>
    </mxGraphModel>
  </diagram>
</mxfile>
